<svg version="1.1" id="Layer_1" xmlns="http://www.w3.org/2000/svg" xmlns:xlink="http://www.w3.org/1999/xlink" x="0px" y="0px"
	 width="100%" viewBox="0 0 1000 1000" enable-background="new 0 0 1000 1000" xml:space="preserve">
<path fill="#000000" opacity="1.000000" stroke="none" 
	d="
M532.000000,1001.000000 
	C354.666656,1001.000000 177.833328,1001.000000 1.000000,1001.000000 
	C1.000000,667.666687 1.000000,334.333344 1.000000,1.000000 
	C334.333344,1.000000 667.666687,1.000000 1001.000000,1.000000 
	C1001.000000,334.333344 1001.000000,667.666687 1001.000000,1001.000000 
	C844.833313,1001.000000 688.666687,1001.000000 532.000000,1001.000000 
M604.407532,901.959534 
	C622.072205,896.058044 638.120239,887.019836 653.197571,876.268921 
	C696.114563,845.666992 732.673828,808.379456 765.925964,767.759033 
	C787.617920,741.260376 806.347961,712.847290 818.295288,680.455811 
	C835.036621,635.067261 832.160522,592.115356 802.614990,552.287903 
	C794.301270,541.080872 786.286255,529.578979 779.080017,517.641357 
	C769.196594,501.268799 756.535156,487.632874 741.743347,475.737854 
	C722.055359,459.905487 700.040344,447.850769 677.858887,436.044403 
	C668.953064,431.304138 660.095520,426.473083 650.442383,421.266052 
	C658.595276,406.884399 665.792358,392.389984 674.616638,378.965118 
	C699.616821,340.931091 730.310242,307.542023 762.174194,275.287354 
	C803.479309,233.475784 848.332397,196.425430 903.275513,173.308334 
	C909.898254,170.521835 916.010437,166.074280 921.652222,161.520599 
	C928.260498,156.186920 928.924072,150.786423 924.855408,143.369247 
	C922.706360,139.451538 919.715332,136.001984 917.469666,132.129257 
	C915.156921,128.140945 912.341675,124.091881 911.432800,119.718880 
	C909.810120,111.911674 905.620300,106.826836 898.566528,103.823860 
	C887.566162,99.140656 875.985046,98.116051 864.275696,99.445717 
	C840.631897,102.130623 818.092834,109.055664 796.417297,118.660065 
	C734.207458,146.225189 680.255554,185.923996 631.167542,232.496292 
	C604.562622,257.737732 581.400452,285.876068 565.557312,319.250305 
	C561.715698,327.342712 559.273743,336.504486 558.172058,345.419678 
	C554.236511,377.268341 563.041321,406.095337 581.500793,431.962128 
	C589.816528,443.614655 598.933228,454.661926 603.109802,468.713745 
	C603.570862,470.265167 604.559937,471.723175 605.543945,473.046143 
	C619.933777,492.393738 636.943298,508.897614 658.736450,519.665100 
	C676.747681,528.563965 695.147644,536.675110 713.359802,545.168640 
	C728.840210,552.388184 744.298462,559.655273 759.974426,566.998718 
	C759.064392,572.151245 758.451843,577.101807 757.291992,581.920654 
	C753.092285,599.368652 744.462585,614.723999 733.718445,628.818176 
	C704.867554,666.665100 670.119385,698.479248 630.589722,724.653076 
	C601.508118,743.908997 570.789795,760.674866 541.234863,779.241211 
	C524.786011,789.574341 509.126404,801.183289 493.313995,812.500793 
	C487.107056,816.943298 486.300446,820.345764 489.359589,827.181885 
	C492.747498,834.752747 496.572723,842.138000 500.451691,849.475037 
	C502.595612,853.530212 506.136536,855.738159 510.873901,856.223694 
	C521.762390,857.339783 535.495605,871.717224 537.139465,882.602722 
	C537.694092,886.275757 539.359558,890.690186 542.046387,892.938904 
	C547.301392,897.336914 553.243225,901.472351 559.595947,903.888306 
	C574.300720,909.480347 589.091675,906.611816 604.407532,901.959534 
M438.989777,277.689789 
	C437.142365,290.712219 442.509003,301.487549 449.374634,312.535614 
	C451.301666,310.691742 452.881104,309.476807 454.100159,307.970215 
	C477.542694,278.999207 494.172791,247.132629 498.534668,209.361649 
	C502.213257,177.507355 492.907288,150.971176 469.645966,129.139236 
	C462.185303,122.137047 453.627533,117.172836 443.350861,115.907722 
	C433.944427,114.749748 424.491730,113.948540 415.047333,113.129440 
	C412.411102,112.900795 409.586670,112.623772 407.095947,113.291557 
	C389.737701,117.945427 373.993378,125.907974 359.533997,136.605591 
	C338.800720,151.944931 320.186035,169.608093 303.264160,188.932510 
	C259.460754,238.955093 217.805908,290.648102 184.046616,348.197632 
	C169.923660,372.273041 155.298660,396.113007 142.441040,420.859711 
	C112.202011,479.060028 87.617760,539.385193 78.501022,604.984314 
	C75.299889,628.017944 74.725647,651.126404 77.316986,674.263428 
	C81.119049,708.210510 94.355606,738.350464 114.891289,765.344849 
	C139.281555,797.406128 167.444412,825.956177 197.169098,853.065063 
	C219.657028,873.574158 245.373627,886.017334 276.198273,886.427612 
	C293.537598,886.658447 310.946716,886.492371 327.501587,880.467712 
	C354.718536,870.562744 371.936218,849.780823 385.819702,825.591919 
	C386.497498,824.411011 386.669312,822.939636 387.160522,821.328796 
	C384.734375,821.690674 382.848328,821.971924 380.563446,822.312683 
	C384.229584,816.605652 388.005127,811.533569 390.883331,805.995239 
	C393.221252,801.496582 394.705688,796.503906 396.143799,791.605591 
	C397.117401,788.289551 395.363098,786.407776 391.864288,786.854431 
	C388.260101,787.314392 384.605194,787.769348 381.129303,788.770935 
	C369.010162,792.263306 357.064514,796.399597 344.862640,799.555603 
	C303.236053,810.322571 262.319244,810.378174 222.583786,791.271667 
	C208.235336,784.372253 198.164505,773.726135 193.309372,758.963989 
	C190.285065,749.768494 188.427383,739.788879 188.291092,730.129456 
	C188.028366,711.509888 188.036636,692.701843 190.352127,674.276001 
	C193.414398,649.907776 197.331192,625.442993 203.601242,601.739380 
	C209.822052,578.221863 218.806824,555.359619 227.641373,532.622620 
	C262.405304,443.152588 308.662933,359.719482 361.264496,279.625244 
	C381.619873,248.630966 402.803253,218.386581 431.370300,194.238983 
	C437.658112,188.923889 444.692902,184.298141 451.931396,180.362198 
	C457.968170,177.079697 463.757568,180.828491 463.728180,187.871704 
	C463.708069,192.697861 462.530273,197.801132 460.680786,202.290649 
	C450.770630,226.346634 443.269989,251.063004 438.989777,277.689789 
z"/>
<path fill="#FEFEFE" opacity="1.000000" stroke="none" 
	d="
M604.015259,902.044556 
	C589.091675,906.611816 574.300720,909.480347 559.595947,903.888306 
	C553.243225,901.472351 547.301392,897.336914 542.046387,892.938904 
	C539.359558,890.690186 537.694092,886.275757 537.139465,882.602722 
	C535.495605,871.717224 521.762390,857.339783 510.873901,856.223694 
	C506.136536,855.738159 502.595612,853.530212 500.451691,849.475037 
	C496.572723,842.138000 492.747498,834.752747 489.359589,827.181885 
	C486.300446,820.345764 487.107056,816.943298 493.313995,812.500793 
	C509.126404,801.183289 524.786011,789.574341 541.234863,779.241211 
	C570.789795,760.674866 601.508118,743.908997 630.589722,724.653076 
	C670.119385,698.479248 704.867554,666.665100 733.718445,628.818176 
	C744.462585,614.723999 753.092285,599.368652 757.291992,581.920654 
	C758.451843,577.101807 759.064392,572.151245 759.974426,566.998718 
	C744.298462,559.655273 728.840210,552.388184 713.359802,545.168640 
	C695.147644,536.675110 676.747681,528.563965 658.736450,519.665100 
	C636.943298,508.897614 619.933777,492.393738 605.543945,473.046143 
	C604.559937,471.723175 603.570862,470.265167 603.109802,468.713745 
	C598.933228,454.661926 589.816528,443.614655 581.500793,431.962128 
	C563.041321,406.095337 554.236511,377.268341 558.172058,345.419678 
	C559.273743,336.504486 561.715698,327.342712 565.557312,319.250305 
	C581.400452,285.876068 604.562622,257.737732 631.167542,232.496292 
	C680.255554,185.923996 734.207458,146.225189 796.417297,118.660065 
	C818.092834,109.055664 840.631897,102.130623 864.275696,99.445717 
	C875.985046,98.116051 887.566162,99.140656 898.566528,103.823860 
	C905.620300,106.826836 909.810120,111.911674 911.432800,119.718880 
	C912.341675,124.091881 915.156921,128.140945 917.469666,132.129257 
	C919.715332,136.001984 922.706360,139.451538 924.855408,143.369247 
	C928.924072,150.786423 928.260498,156.186920 921.652222,161.520599 
	C916.010437,166.074280 909.898254,170.521835 903.275513,173.308334 
	C848.332397,196.425430 803.479309,233.475784 762.174194,275.287354 
	C730.310242,307.542023 699.616821,340.931091 674.616638,378.965118 
	C665.792358,392.389984 658.595276,406.884399 650.442383,421.266052 
	C660.095520,426.473083 668.953064,431.304138 677.858887,436.044403 
	C700.040344,447.850769 722.055359,459.905487 741.743347,475.737854 
	C756.535156,487.632874 769.196594,501.268799 779.080017,517.641357 
	C786.286255,529.578979 794.301270,541.080872 802.614990,552.287903 
	C832.160522,592.115356 835.036621,635.067261 818.295288,680.455811 
	C806.347961,712.847290 787.617920,741.260376 765.925964,767.759033 
	C732.673828,808.379456 696.114563,845.666992 653.197571,876.268921 
	C638.120239,887.019836 622.072205,896.058044 604.015259,902.044556 
z"/>
<path fill="#FEFEFE" opacity="1.000000" stroke="none" 
	d="
M439.008118,277.218750 
	C443.269989,251.063004 450.770630,226.346634 460.680786,202.290649 
	C462.530273,197.801132 463.708069,192.697861 463.728180,187.871704 
	C463.757568,180.828491 457.968170,177.079697 451.931396,180.362198 
	C444.692902,184.298141 437.658112,188.923889 431.370300,194.238983 
	C402.803253,218.386581 381.619873,248.630966 361.264496,279.625244 
	C308.662933,359.719482 262.405304,443.152588 227.641373,532.622620 
	C218.806824,555.359619 209.822052,578.221863 203.601242,601.739380 
	C197.331192,625.442993 193.414398,649.907776 190.352127,674.276001 
	C188.036636,692.701843 188.028366,711.509888 188.291092,730.129456 
	C188.427383,739.788879 190.285065,749.768494 193.309372,758.963989 
	C198.164505,773.726135 208.235336,784.372253 222.583786,791.271667 
	C262.319244,810.378174 303.236053,810.322571 344.862640,799.555603 
	C357.064514,796.399597 369.010162,792.263306 381.129303,788.770935 
	C384.605194,787.769348 388.260101,787.314392 391.864288,786.854431 
	C395.363098,786.407776 397.117401,788.289551 396.143799,791.605591 
	C394.705688,796.503906 393.221252,801.496582 390.883331,805.995239 
	C388.005127,811.533569 384.229584,816.605652 380.563446,822.312683 
	C382.848328,821.971924 384.734375,821.690674 387.160522,821.328796 
	C386.669312,822.939636 386.497498,824.411011 385.819702,825.591919 
	C371.936218,849.780823 354.718536,870.562744 327.501587,880.467712 
	C310.946716,886.492371 293.537598,886.658447 276.198273,886.427612 
	C245.373627,886.017334 219.657028,873.574158 197.169098,853.065063 
	C167.444412,825.956177 139.281555,797.406128 114.891289,765.344849 
	C94.355606,738.350464 81.119049,708.210510 77.316986,674.263428 
	C74.725647,651.126404 75.299889,628.017944 78.501022,604.984314 
	C87.617760,539.385193 112.202011,479.060028 142.441040,420.859711 
	C155.298660,396.113007 169.923660,372.273041 184.046616,348.197632 
	C217.805908,290.648102 259.460754,238.955093 303.264160,188.932510 
	C320.186035,169.608093 338.800720,151.944931 359.533997,136.605591 
	C373.993378,125.907974 389.737701,117.945427 407.095947,113.291557 
	C409.586670,112.623772 412.411102,112.900795 415.047333,113.129440 
	C424.491730,113.948540 433.944427,114.749748 443.350861,115.907722 
	C453.627533,117.172836 462.185303,122.137047 469.645966,129.139236 
	C492.907288,150.971176 502.213257,177.507355 498.534668,209.361649 
	C494.172791,247.132629 477.542694,278.999207 454.100159,307.970215 
	C452.881104,309.476807 451.301666,310.691742 449.374634,312.535614 
	C442.509003,301.487549 437.142365,290.712219 439.008118,277.218750 
z"/>
</svg>